<svg width="21" height="21" viewBox="0 0 21 21" fill="none" xmlns="http://www.w3.org/2000/svg">
<g id="icons8-close 1">
<path id="Vector" d="M4.9 2.8C4.72089 2.8 4.54158 2.86823 4.40508 3.00508L3.00508 4.40508C2.73138 4.67878 2.73138 5.12192 3.00508 5.39492L8.11016 10.5L3.00508 15.6051C2.73138 15.8788 2.73138 16.3219 3.00508 16.5949L4.40508 17.9949C4.67878 18.2686 5.12192 18.2686 5.39492 17.9949L10.5 12.8898L15.6051 17.9949C15.8781 18.2686 16.3219 18.2686 16.5949 17.9949L17.9949 16.5949C18.2686 16.3212 18.2686 15.8781 17.9949 15.6051L12.8898 10.5L17.9949 5.39492C18.2686 5.12192 18.2686 4.67808 17.9949 4.40508L16.5949 3.00508C16.3212 2.73138 15.8781 2.73138 15.6051 3.00508L10.5 8.11016L5.39492 3.00508C5.25807 2.86823 5.07911 2.8 4.9 2.8Z" fill="black"/>
</g>
</svg>
